<?xml version="1.0" standalone="no"?>
<!DOCTYPE svg PUBLIC "-//W3C//DTD SVG 20010904//EN"
 "http://www.w3.org/TR/2001/REC-SVG-20010904/DTD/svg10.dtd">
<svg version="1.0" xmlns="http://www.w3.org/2000/svg"
 width="3958.000000pt" height="906.000000pt" viewBox="0 0 3958.000000 906.000000"
 preserveAspectRatio="xMidYMid meet">

<g transform="translate(0.000000,906.000000) scale(0.100000,-0.100000)"
fill="#ffffff" stroke="none">
<path d="M20643 9046 c-268 -62 -459 -324 -439 -606 11 -156 61 -266 171 -375
117 -116 236 -165 403 -165 117 0 180 13 271 58 53 25 95 57 145 107 117 116
169 240 169 410 1 163 -45 284 -151 397 -119 126 -232 178 -402 184 -68 2
-127 -1 -167 -10z"/>
<path d="M4790 7689 l0 -1302 -122 119 c-422 411 -927 659 -1525 751 -140 21
-593 24 -733 5 -323 -46 -586 -126 -865 -263 -285 -140 -505 -298 -736 -529
-234 -234 -374 -431 -524 -735 -162 -329 -244 -619 -275 -975 -114 -1311 701
-2513 1960 -2893 139 -42 273 -70 440 -93 170 -23 529 -23 698 0 617 84 1143
341 1581 773 52 51 96 93 98 93 2 0 3 -171 3 -380 l0 -380 360 0 360 0 0 3555
0 3555 -360 0 -360 0 0 -1301z m-1711 -1083 c267 -50 514 -152 746 -307 320
-215 557 -487 739 -850 405 -808 250 -1759 -394 -2423 -179 -185 -341 -304
-571 -421 -440 -224 -943 -264 -1418 -114 -114 37 -323 135 -438 207 -491 305
-864 841 -978 1407 -136 670 72 1372 556 1879 319 335 747 568 1149 625 41 6
86 13 100 15 59 10 429 -3 509 -18z"/>
<path d="M36928 8323 l-358 -358 0 -413 0 -412 -255 0 -255 0 0 -325 0 -325
255 0 255 0 3 -1682 3 -1683 22 -100 c116 -506 464 -909 969 -1121 477 -201
1072 -201 1466 0 164 84 345 212 487 344 l65 61 -245 245 -244 246 -66 -68
c-186 -194 -404 -297 -652 -309 -284 -14 -515 78 -740 295 -135 130 -226 276
-288 462 -61 181 -60 140 -60 1798 l0 1512 920 0 920 0 0 325 0 325 -920 0
-920 0 -2 770 -3 770 -357 -357z"/>
<path d="M9540 7274 c-653 -61 -1230 -323 -1684 -764 -163 -159 -264 -279
-382 -455 -311 -466 -464 -973 -464 -1536 0 -453 86 -821 285 -1224 151 -306
297 -510 534 -745 629 -624 1505 -903 2390 -760 520 84 1005 325 1429 708 l83
75 -78 79 c-43 44 -157 156 -254 248 l-176 169 -91 -89 c-167 -163 -357 -296
-567 -396 -718 -343 -1561 -195 -2162 379 -291 278 -508 654 -609 1055 -19 74
-34 145 -34 158 l0 24 2370 0 c2248 0 2371 1 2378 18 4 9 7 139 6 287 0 225
-4 293 -22 410 -48 306 -119 531 -257 810 -284 576 -677 982 -1213 1254 -287
145 -540 226 -862 276 -102 16 -517 28 -620 19z m596 -678 c459 -97 889 -370
1200 -761 160 -202 248 -367 333 -620 41 -124 101 -337 101 -359 0 -3 -902 -6
-2005 -6 -1782 0 -2005 2 -2005 15 0 36 44 209 82 324 223 672 797 1214 1465
1386 174 45 269 54 498 50 177 -3 229 -7 331 -29z"/>
<path d="M31910 7269 c-226 -24 -475 -80 -676 -154 -149 -54 -424 -194 -559
-282 -527 -347 -919 -859 -1118 -1465 -85 -256 -117 -463 -124 -788 -7 -338
18 -552 98 -829 101 -352 307 -738 541 -1016 174 -205 406 -408 630 -551 137
-87 385 -210 539 -266 540 -199 1177 -218 1726 -52 402 122 782 341 1106 639
l76 71 -255 248 -255 249 -107 -105 c-412 -403 -953 -606 -1494 -560 -264 22
-461 77 -696 192 -231 114 -391 229 -573 416 -300 309 -504 698 -584 1117
l-13 67 2373 0 2373 0 5 23 c13 55 18 335 8 472 -30 402 -118 721 -296 1070
-290 569 -684 962 -1240 1235 -316 155 -596 234 -954 270 -121 12 -409 11
-531 -1z m531 -655 c411 -57 811 -261 1128 -575 173 -172 331 -386 416 -564
64 -135 147 -381 189 -562 l14 -63 -2008 0 -2008 0 23 109 c63 295 200 592
391 848 79 104 268 299 374 383 288 229 648 385 990 429 112 15 372 12 491 -5z"/>
<path d="M25137 7259 c-681 -72 -1335 -444 -1743 -991 -369 -496 -547 -1091
-505 -1687 26 -358 100 -638 256 -956 208 -424 524 -777 918 -1025 177 -111
426 -226 618 -284 412 -126 916 -139 1334 -35 410 102 809 319 1121 612 34 31
65 57 69 57 14 0 -3 -607 -20 -719 -111 -753 -650 -1369 -1350 -1544 -170 -43
-249 -52 -455 -51 -152 1 -220 6 -310 22 -346 63 -672 235 -926 490 l-66 65
-239 -239 c-131 -131 -239 -241 -239 -245 0 -10 173 -160 266 -230 276 -208
601 -357 954 -438 309 -71 715 -79 1038 -21 561 101 1078 394 1441 815 364
421 572 906 620 1445 7 76 11 919 11 2483 l0 2367 -360 0 -360 0 -2 -311 -3
-312 -90 83 c-389 356 -886 585 -1403 645 -136 16 -442 18 -575 4z m473 -630
c291 -36 584 -149 820 -317 183 -130 372 -331 495 -527 488 -778 360 -1828
-299 -2452 -371 -351 -873 -529 -1365 -484 -218 20 -385 65 -576 156 -219 103
-382 221 -551 398 -128 134 -217 259 -303 427 -115 225 -173 407 -207 650 -24
174 -15 492 20 658 116 548 448 1013 912 1275 214 121 423 189 679 220 68 9
296 6 375 -4z"/>
<path d="M13471 7063 c22 -49 545 -1233 1163 -2633 l1124 -2545 423 0 423 0
1192 2633 1191 2632 -429 -2 -429 -3 -982 -2187 c-540 -1204 -984 -2188 -987
-2188 -3 0 -430 985 -950 2190 l-945 2190 -417 0 -417 0 40 -87z"/>
<path d="M20120 6825 l0 -325 248 -2 247 -3 3 -2308 2 -2307 360 0 360 0 0
2635 0 2635 -610 0 -610 0 0 -325z"/>
</g>
</svg>
